<?xml version="1.0" encoding="UTF-8"?>
<svg version="1.1" xmlns="http://www.w3.org/2000/svg" width="2000" height="466">
<path d="M0 0 C60.02961447 -1.7038741 117.77508859 18.50422835 161.89697266 59.53515625 C164.48651121 62.0142586 167.02039748 64.54129219 169.55322266 67.078125 C170.75978516 68.21507813 170.75978516 68.21507813 171.99072266 69.375 C194.81848452 91.22840618 210.62874586 119.71118481 221.55322266 149.078125 C221.80056152 149.72958496 222.04790039 150.38104492 222.30273438 151.05224609 C228.28586375 166.96028101 231.7141829 184.20600449 233.55322266 201.078125 C233.66408203 202.04363281 233.77494141 203.00914062 233.88916016 204.00390625 C239.39981664 261.4189893 222.03034087 320.73995119 185.73291016 365.609375 C183.0731692 368.82566346 180.32982289 371.96260168 177.55322266 375.078125 C177.0849707 375.60809082 176.61671875 376.13805664 176.13427734 376.68408203 C170.61313115 382.91465975 164.96047445 388.74637618 158.55322266 394.078125 C157.64572266 394.88507813 156.73822266 395.69203125 155.80322266 396.5234375 C111.30542004 435.84873621 51.15273506 453.41521372 -7.53271484 449.80078125 C-64.68543764 445.40749818 -119.7691773 418.95385258 -158.13427734 376.140625 C-159.24892173 374.79506962 -160.35147116 373.43946836 -161.44677734 372.078125 C-162.34341279 371.00479047 -163.24060374 369.93191989 -164.13818359 368.859375 C-182.0409049 347.24159883 -195.4740308 322.66684172 -204.44677734 296.078125 C-204.69508301 295.34432617 -204.94338867 294.61052734 -205.19921875 293.85449219 C-223.59741832 238.2901445 -217.5908453 176.11564651 -192.01098633 123.89160156 C-183.09970964 106.19485444 -171.97051307 89.74285567 -158.44287109 75.2265625 C-156.62292488 73.26771628 -154.90960361 71.25516625 -153.19677734 69.203125 C-117.35196006 28.36622129 -62.14730026 5.4353752 -8.94677734 0.328125 C-5.96493912 0.1705642 -2.98424295 0.09528615 0 0 Z M-27.88427734 43.640625 C-29.44677734 45.078125 -29.44677734 45.078125 -32.75927734 46.828125 C-38.79918737 50.17369884 -42.94740321 55.69083555 -45.44677734 62.078125 C-45.69962101 64.82958774 -45.69962101 64.82958774 -45.44677734 67.078125 C-46.60177734 66.748125 -47.75677734 66.418125 -48.94677734 66.078125 C-55.26926826 64.5279521 -60.59455431 64.85407577 -66.88427734 66.203125 C-71.54729924 67.1344448 -74.67670245 66.77564984 -79.20458984 65.54296875 C-86.75052874 63.97856678 -94.88286921 66.34174652 -101.44677734 70.078125 C-105.03038002 72.83700816 -108.40490462 75.72559293 -111.44677734 79.078125 C-111.44677734 79.738125 -111.44677734 80.398125 -111.44677734 81.078125 C-112.56052734 81.14 -113.67427734 81.201875 -114.82177734 81.265625 C-123.11623574 82.35005949 -129.97809729 86.65794129 -135.62255859 92.703125 C-140.43579567 98.96960925 -144.08454604 106.10903638 -144.44677734 114.078125 C-145.14802734 114.305 -145.84927734 114.531875 -146.57177734 114.765625 C-155.10578052 118.66158297 -160.06582294 126.27664454 -163.55615234 134.78125 C-165.16221673 139.96308038 -165.47763095 144.35451223 -165.19677734 149.765625 C-165.06121586 154.54981579 -165.39703647 156.81166385 -168.69677734 160.328125 C-169.65197266 161.24078125 -169.65197266 161.24078125 -170.62646484 162.171875 C-176.3655132 168.18186556 -177.59430314 176.4357582 -177.63427734 184.390625 C-177.64845703 185.66550781 -177.66263672 186.94039062 -177.67724609 188.25390625 C-177.44304525 192.1400524 -176.59363677 195.37253537 -175.44677734 199.078125 C-175.672245 203.36201056 -177.70264938 207.06208885 -179.50927734 210.89453125 C-183.15576277 219.38780355 -182.66146052 230.79923831 -179.57177734 239.390625 C-178.3906526 242.24719706 -177.17287435 244.4889795 -175.44677734 247.078125 C-175.72148309 250.09988822 -176.1134125 252.9436894 -176.97021484 255.859375 C-179.23239093 266.39147351 -177.74045118 277.39664275 -171.91552734 286.4609375 C-169.91325754 289.19933591 -167.84538427 291.67951808 -165.44677734 294.078125 C-165.39208984 296.66015625 -165.39208984 296.66015625 -165.57177734 299.890625 C-165.70732564 312.18485552 -161.66831007 321.9686055 -153.44677734 331.078125 C-149.4824956 334.76402166 -149.4824956 334.76402166 -144.44677734 336.078125 C-144.37201172 336.68398438 -144.29724609 337.28984375 -144.22021484 337.9140625 C-142.6296923 348.04974536 -137.60824651 356.75177908 -129.44677734 363.078125 C-124.80505273 366.00294329 -120.4602127 368.19034444 -114.94677734 368.640625 C-113.79177734 368.785 -112.63677734 368.929375 -111.44677734 369.078125 C-110.45068359 370.88671875 -110.45068359 370.88671875 -109.44677734 373.078125 C-102.11192266 381.09897329 -94.04731047 384.50579058 -83.30615234 385.1328125 C-80.70165198 385.08299965 -78.62674063 384.78335686 -76.13427734 384.078125 C-71.31581329 382.77142288 -67.72820798 383.56480311 -62.94677734 384.640625 C-53.14703786 386.35557941 -44.65118663 383.25046998 -36.44677734 378.078125 C-36.40552734 378.861875 -36.36427734 379.645625 -36.32177734 380.453125 C-34.38003413 388.49748973 -29.10371928 396.15175722 -22.44677734 401.078125 C-0.81368076 413.67429209 24.66556367 409.4409632 48.11572266 403.515625 C94.02509277 391.1856119 135.36983081 360.8549331 159.44848633 319.66333008 C160.5011852 317.8108044 161.53247762 315.94843422 162.55322266 314.078125 C162.89691895 313.45115723 163.24061523 312.82418945 163.59472656 312.17822266 C186.631615 269.57457304 191.59296493 219.45862116 178.12353516 173.02734375 C163.73941319 126.04719577 131.77382538 86.32136036 88.43212891 63.09765625 C87.14080052 62.42133785 85.8478708 61.74806662 84.55322266 61.078125 C83.95364746 60.76536621 83.35407227 60.45260742 82.73632812 60.13037109 C64.48554478 50.74725654 44.17296773 44.56344745 23.73291016 42.5703125 C22.96495117 42.49466064 22.19699219 42.41900879 21.40576172 42.34106445 C19.9747127 42.21229514 18.54149882 42.10482617 17.10693359 42.02416992 C11.61095036 41.57121182 9.47867234 39.64771104 5.55322266 36.078125 C-6.77764085 29.96485426 -18.87710767 33.85022318 -27.88427734 43.640625 Z " fill="#E0230A" transform="translate(234.44677734375,3.921875)"/>
<path d="M0 0 C2.97858097 0.19425528 3.97584075 -0.15679108 6.625 -1.3125 C11.49794231 -3.33822506 15.79880751 -3.06451392 20.875 -1.8125 C27.2150573 1.47493712 30.36602732 5.63305199 32.875 12.1875 C35.3593908 18.63736072 38.51652327 22.5511447 44.4375 26.1171875 C49.02345641 28.13089272 53.93110295 28.6354315 58.875 29.1875 C59.04322266 30.16589844 59.04322266 30.16589844 59.21484375 31.1640625 C60.4180263 36.49581262 61.55954857 39.53438826 66.25 42.5625 C67.78110546 43.45585165 69.32193133 44.33290137 70.875 45.1875 C76.64702731 49.03551821 79.49900765 54.4559296 80.875 61.1875 C81.03197801 65.1904392 80.76669809 68.87718827 80.125 72.8125 C79.72622823 76.17357636 79.70567222 76.90094529 81.5 79.9375 C83.11572329 81.46818523 84.7411448 82.98868394 86.375 84.5 C92.2887343 90.85726437 93.46434692 96.42752277 93.21484375 105.0703125 C92.76325858 109.21243853 91.46386294 112.3477479 89.875 116.1875 C89.04292158 121.27242365 90.02419049 123.78854908 92.8125 127.9375 C93.35777344 128.67484375 93.90304687 129.4121875 94.46484375 130.171875 C98.28016133 135.62534833 97.49633538 142.84582694 96.875 149.1875 C95.30989559 153.78353423 93.32024476 157.74225524 89.875 161.1875 C89.4599866 165.33763401 89.77143839 167.93722611 91.375 171.8125 C93.88537204 177.98633363 94.04911777 185.24852426 92.1484375 191.625 C90.13518848 195.94611985 87.37763089 198.94756643 83.875 202.1875 C80.81458734 205.21506386 79.88781289 206.47902264 79.80859375 210.859375 C79.96127548 212.22055176 80.12987529 213.58001626 80.3125 214.9375 C81.12032095 223.33255797 80.43498722 229.16379804 75.25 235.9375 C72.23667041 239.20824971 68.80668408 241.12525803 64.828125 243.046875 C62.56518726 244.17689216 62.56518726 244.17689216 60.875 247.1875 C60.52675327 248.94808069 60.24105956 250.7215708 60 252.5 C58.65548063 260.34992462 55.0812661 264.53280042 48.875 269.1875 C45.11937002 271.35933613 41.45568281 271.87049199 37.21484375 272.52734375 C33.7748283 273.49789903 32.50852022 275.37344293 30.3671875 278.125 C26.24247931 283.3854974 22.58485594 286.21740035 15.875 287.1875 C12.0745519 287.21479227 8.76550246 286.56914391 5.25 285.0625 C1.22973062 283.58134812 -2.18617998 284.87455999 -6.125 286.1875 C-18.77451198 287.13666973 -18.77451198 287.13666973 -24.125 283.1875 C-25.75274378 281.48741206 -27.2646215 279.74764489 -28.73046875 277.90625 C-29.19066406 277.3390625 -29.65085937 276.771875 -30.125 276.1875 C-30.55167969 275.64480469 -30.97835937 275.10210937 -31.41796875 274.54296875 C-33.8678263 272.59765852 -36.18033462 272.48258333 -39.25 272 C-46.29948972 270.49726279 -50.54641185 267.72296162 -55.125 262.1875 C-56.97024173 258.97320795 -57.97840347 256.41304698 -58.41796875 252.73828125 C-59.01750646 247.48228973 -59.01750646 247.48228973 -62.07421875 243.35546875 C-64.37622305 241.85250726 -66.7082565 240.4965694 -69.125 239.1875 C-74.89528204 235.34064531 -77.75188256 229.91846784 -79.125 223.1875 C-79.27219002 219.36055947 -79.08294335 215.82167556 -78.4375 212.0625 C-78.08583093 207.7018035 -78.42294436 206.52003529 -81.125 203.1875 C-81.929375 202.383125 -82.73375 201.57875 -83.5625 200.75 C-89.02132021 195.29117979 -91.26748448 190.64256128 -91.375 183 C-91.3494283 177.24636818 -90.33322115 173.43202524 -88.125 168.1875 C-87.01882454 162.53371433 -89.73145125 159.04849347 -92.71484375 154.45703125 C-96.3248712 148.64698708 -95.77227857 141.78692711 -95.125 135.1875 C-93.46727867 130.37515973 -90.93282138 126.39923207 -88.125 122.1875 C-87.67989323 118.35958179 -88.11680813 116.20695568 -89.625 112.625 C-92.19769985 106.15614412 -92.29328287 98.97273649 -90.24609375 92.33984375 C-87.87048741 87.14173482 -85.05850157 84.00846316 -80.578125 80.55078125 C-78.83649465 79.13580793 -78.83649465 79.13580793 -78.125 76.125 C-78.125 73.28550612 -78.51836264 70.95107021 -79.125 68.1875 C-79.69135129 60.82493318 -78.0770172 54.28591086 -73.5 48.4375 C-70.48667041 45.16675029 -67.05668408 43.24974197 -63.078125 41.328125 C-60.81518726 40.19810784 -60.81518726 40.19810784 -59.125 37.1875 C-58.79993347 35.46770356 -58.53531616 33.7360072 -58.3125 32 C-57.14399303 25.15200566 -54.71704568 20.58514226 -49.625 15.875 C-46.17733054 14.2127308 -43.61609019 13.73973313 -39.875 13.125 C-32.76347458 11.69456746 -29.63951959 8.26242959 -25.24609375 2.68359375 C-22.54033586 -0.50053018 -20.43473593 -1.43828973 -16.5 -2.5625 C-10.83205245 -2.98234797 -5.4636247 -1.42054242 0 0 Z M61.875 129.1875 C58.575 132.4875 55.275 135.7875 51.875 139.1875 C52.37 140.1775 52.865 141.1675 53.375 142.1875 C55.3768508 146.91568094 55.81756642 151.32729845 54.1953125 156.25 C53.48630836 157.92460027 52.6882617 159.56097661 51.875 161.1875 C55.175 164.4875 58.475 167.7875 61.875 171.1875 C68.05719947 165.00530053 70.96756434 158.99654003 71.375 150.1875 C70.96756434 141.37845997 68.05719947 135.36969947 61.875 129.1875 Z M37.875 199.1875 C36.21474457 199.55142418 34.54866524 199.89130151 32.875 200.1875 C32.86082031 201.21230469 32.84664063 202.23710937 32.83203125 203.29296875 C32.78510984 204.65368971 32.73686256 206.01436541 32.6875 207.375 C32.68169922 208.04853516 32.67589844 208.72207031 32.66992188 209.41601562 C32.49466177 213.40805146 32.04607035 214.99858796 29.328125 218 C28.51859375 218.721875 27.7090625 219.44375 26.875 220.1875 C26.75978408 225.37221646 29.44582754 229.73590024 31.875 234.1875 C40.25504685 231.31434108 44.01379446 225.8517604 47.875 218.1875 C50.81862158 211.1897087 50.2469427 203.30332809 47.875 196.1875 C43.99875078 196.1875 41.4189293 197.65994427 37.875 199.1875 Z " fill="#E0230A" transform="translate(163.125,86.8125)"/>
<path d="M0 0 C24.41886972 2.87864724 49.45487556 13.11807167 69 28 C70.05058594 28.75925781 71.10117187 29.51851562 72.18359375 30.30078125 C87.68514428 41.74653817 101.53932315 55.79972592 112 72 C112.4218457 72.64727051 112.84369141 73.29454102 113.27832031 73.96142578 C137.91117844 112.30713351 145.54669837 157.95388796 136.49609375 202.47900391 C128.80543675 237.70648556 109.19028801 272.1746457 81 295 C80.08992187 295.74765625 79.17984375 296.4953125 78.2421875 297.265625 C64.1018861 308.5353389 48.80475274 317.34367457 32 324 C30.22496094 324.70576172 30.22496094 324.70576172 28.4140625 325.42578125 C20.52945899 328.28727219 12.51990703 330.07589438 4.3125 331.75 C3.27923584 331.96100342 2.24597168 332.17200684 1.18139648 332.3894043 C-13.76844044 335.28848543 -31.81964292 338.65638732 -45.25 329.875 C-51.27513882 323.57599124 -53.58852997 317.64087061 -54 309 C-52.82244141 308.47212891 -52.82244141 308.47212891 -51.62109375 307.93359375 C-39.55269322 302.26218589 -34.22559568 296.27934092 -29 284 C-28.71125 282.96359375 -28.4225 281.9271875 -28.125 280.859375 C-26.76264329 277.39671837 -25.35741091 276.38751586 -22.3125 274.3125 C-13.69308881 267.76075103 -8.46643728 258.75871308 -7 248 C-7.05014561 245.76983994 -7.13437413 243.5402251 -7.25 241.3125 C-7.38556149 236.52830921 -7.04974088 234.26646115 -3.75 230.75 C-3.11320312 230.1415625 -2.47640625 229.533125 -1.8203125 228.90625 C3.91873586 222.89625944 5.14752579 214.6423668 5.1875 206.6875 C5.20167969 205.41261719 5.21585937 204.13773438 5.23046875 202.82421875 C4.99626791 198.9380726 4.14685943 195.70558963 3 192 C3.22546766 187.71611444 5.25587204 184.01603615 7.0625 180.18359375 C10.70898542 171.69032145 10.21468318 160.27888669 7.125 151.6875 C5.94387526 148.83092794 4.726097 146.5891455 3 144 C3.27470575 140.97823678 3.66663515 138.1344356 4.5234375 135.21875 C6.78561359 124.68665149 5.29367384 113.68148225 -0.53125 104.6171875 C-2.53351981 101.87878909 -4.60139308 99.39860692 -7 97 C-7.0546875 94.41796875 -7.0546875 94.41796875 -6.875 91.1875 C-6.74103514 79.03688755 -10.65945977 68.89557618 -19 60 C-21.12038304 58.40971272 -23.17287614 57.10420735 -25.53125 55.90234375 C-26.0159375 55.60457031 -26.500625 55.30679688 -27 55 C-27 54.34 -27 53.68 -27 53 C-26.38253906 52.87625 -25.76507813 52.7525 -25.12890625 52.625 C-17.12839321 50.67662544 -11.05530099 46.89021263 -6.62109375 39.79296875 C-4.52532279 35.37715614 -3.41628452 30.88538369 -2.50390625 26.1015625 C-2 24 -2 24 -0.375 20.75 C1.98389838 14.31664077 1.9916075 6.60121518 0 0 Z M20 42 C19.88499567 43.94190983 19.84032925 45.8880169 19.82299805 47.83325195 C19.81016281 49.08157303 19.79732758 50.3298941 19.78410339 51.61604309 C19.775936 52.99011846 19.76849227 54.3641983 19.76171875 55.73828125 C19.75764322 56.427423 19.7535677 57.11656475 19.74936867 57.82658958 C19.72848909 61.47512897 19.71419648 65.12363054 19.70483398 68.7722168 C19.69377446 72.54199341 19.65938629 76.31117891 19.61966228 80.08074665 C19.5935168 82.97782998 19.58514398 85.87477218 19.58155251 88.77196312 C19.57667991 90.16144992 19.56504658 91.55093014 19.54651451 92.9403019 C19.52217546 94.88624497 19.52550273 96.83247444 19.5300293 98.77856445 C19.52416306 99.88585403 19.51829681 100.99314362 19.51225281 102.13398743 C20.11699062 105.68743929 21.14468341 106.85786155 24 109 C26.71353511 109.40732977 28.92365821 109.57251501 31.625 109.5 C32.33849609 109.48791504 33.05199219 109.47583008 33.78710938 109.46337891 C43.19582957 109.1121484 51.22055736 105.59031655 58 99 C65.1609918 90.13628348 67.07216684 81.29411016 67 70 C65.71745247 59.50071382 61.22531753 50.906157 52.92578125 44.28125 C44.05720503 38.38085852 28.57313576 33.42686424 20 42 Z M71.0625 108.0625 C67.70593027 112.84306901 67.80911132 116.46473671 67.76171875 122.171875 C67.753647 123.08704895 67.74557526 124.0022229 67.73725891 124.94512939 C67.72341371 126.8852753 67.71269351 128.82544561 67.70483398 130.765625 C67.6876485 133.72443248 67.64376993 136.68211467 67.59960938 139.640625 C67.58947999 141.52603345 67.58096465 143.41145141 67.57421875 145.296875 C67.55671066 146.17833191 67.53920258 147.05978882 67.52116394 147.96795654 C67.54050363 153.48093216 68.29788788 156.64378522 72 161 C80.01541174 167.31000498 89.27856788 166.50812219 99 166 C105.30330703 165.05363572 108.92531535 162.75940011 112.90625 157.81640625 C115.48621441 153.53182249 115.17536249 148.84624258 115.203125 143.98046875 C115.21167511 142.81527458 115.21167511 142.81527458 115.22039795 141.62654114 C115.22982748 139.98500929 115.23637379 138.34345869 115.24023438 136.7019043 C115.2499261 134.20652762 115.28096219 131.71197999 115.3125 129.21679688 C115.31903231 127.61719236 115.32428189 126.01758199 115.328125 124.41796875 C115.3404718 123.67918991 115.3528186 122.94041107 115.36553955 122.179245 C115.34087551 116.36635269 114.21249087 111.57696152 110.31640625 107.0390625 C109.73761719 106.57242188 109.15882813 106.10578125 108.5625 105.625 C107.98628906 105.14289063 107.41007812 104.66078125 106.81640625 104.1640625 C102.29552221 101.26680778 96.92747373 101.78191047 91.75 101.75 C90.51830078 101.7190625 90.51830078 101.7190625 89.26171875 101.6875 C82.32880762 101.64355128 75.8081411 102.50245327 71.0625 108.0625 Z M36 185 C29.68871622 192.31535165 27.73503395 199.28157644 27.5625 208.75 C27.54018311 209.49556152 27.51786621 210.24112305 27.49487305 211.00927734 C27.50980405 214.58384139 27.68221187 216.5902034 29.90234375 219.453125 C33.30891299 221.96523193 35.27007039 222.13275026 39.47192383 222.16113281 C40.61683792 222.17074036 41.76175201 222.1803479 42.94136047 222.19024658 C44.80536751 222.1966214 44.80536751 222.1966214 46.70703125 222.203125 C47.97971359 222.20882507 49.25239594 222.21452515 50.56364441 222.22039795 C53.26129738 222.2298593 55.9588388 222.23675014 58.65649414 222.24023438 C62.10656434 222.2457118 65.55623841 222.2697232 69.00618458 222.29820633 C72.30227006 222.32135968 75.59837583 222.32328454 78.89453125 222.328125 C80.13112991 222.3404718 81.36772858 222.3528186 82.64179993 222.36553955 C83.7961705 222.36253845 84.95054108 222.35953735 86.13989258 222.35644531 C87.15312088 222.36009094 88.16634918 222.36373657 89.21028137 222.36749268 C92.47325493 221.93765761 94.34717554 220.91522911 97 219 C100.26055959 214.11408593 99.39394551 208.66092287 98.5703125 203.09765625 C96.4988161 193.16214573 92.16647921 186.01062488 83.9375 180 C68.70222346 170.26952353 48.98416645 172.59290761 36 185 Z M5.6875 253.9375 C1.33846306 261.83019667 1.67915787 274.55666572 4.0625 283.125 C5.84223396 287.54891012 8.9453611 290.55849701 13 293 C16.90311322 294.34516743 20.94030876 294.1798503 25.01953125 294.203125 C25.79632736 294.20882507 26.57312347 294.21452515 27.37345886 294.22039795 C29.01499071 294.22982748 30.65654131 294.23637379 32.2980957 294.24023438 C34.79347238 294.2499261 37.28802001 294.28096219 39.78320312 294.3125 C41.38280764 294.31903231 42.98241801 294.32428189 44.58203125 294.328125 C45.69019951 294.3466452 45.69019951 294.3466452 46.820755 294.36553955 C52.63441813 294.34087224 57.38804183 293.19570986 61.9609375 289.3515625 C62.42757812 288.78179687 62.89421875 288.21203125 63.375 287.625 C63.85710937 287.06039062 64.33921875 286.49578125 64.8359375 285.9140625 C67.6912431 281.21909692 67.21479904 275.51604528 67.25 270.1875 C67.270625 269.41857422 67.29125 268.64964844 67.3125 267.85742188 C67.35208484 261.99391768 66.72787061 255.94017589 62.54760742 251.43457031 C57.2978552 246.96093764 53.50270708 246.81714506 46.828125 246.76171875 C45.91295105 246.753647 44.9977771 246.74557526 44.05487061 246.73725891 C42.1147247 246.72341371 40.17455439 246.71269351 38.234375 246.70483398 C35.27556752 246.6876485 32.31788533 246.64376993 29.359375 246.59960938 C27.47396655 246.58947999 25.58854859 246.58096465 23.703125 246.57421875 C22.82166809 246.55671066 21.94021118 246.53920258 21.03204346 246.52116394 C14.06434207 246.54560685 10.11668167 248.3112422 5.6875 253.9375 Z " fill="#E0230A" transform="translate(265,63)"/>
<path d="M0 0 C68.58974359 0 68.58974359 0 83.75 13.4375 C94.13672899 25.26683024 97.99189777 37.23784269 97 53 C94.84098019 65.95411886 88.06397463 74.95926336 79 84 C79.41548096 84.680625 79.83096191 85.36125 80.2590332 86.0625 C89.06270255 100.49576742 97.80105132 114.96598172 106.4375 129.5 C106.85327301 130.19867188 107.26904602 130.89734375 107.69741821 131.6171875 C108.88191742 133.60842592 110.06438005 135.60085752 111.24609375 137.59375 C111.59745392 138.18426147 111.94881409 138.77477295 112.31082153 139.38317871 C113.98246218 142.20865269 115.58267817 145.0378652 117 148 C92.97617202 151.59007307 92.97617202 151.59007307 83 148 C75.58345978 142.37013253 72.25902555 133.22786602 68.72851562 124.86816406 C66.20617879 119.02647903 62.86332486 113.65230486 59.58724976 108.21087646 C57.96508353 105.50258011 56.38882955 102.76864619 54.81640625 100.03125 C54.29506104 99.12955078 53.77371582 98.22785156 53.23657227 97.29882812 C52 95 52 95 51 92 C43.74 92 36.48 92 29 92 C29 110.48 29 128.96 29 148 C19.43 148 9.86 148 0 148 C0 99.16 0 50.32 0 0 Z M29 27 C29 39.87 29 52.74 29 66 C32.63 66.0825 36.26 66.165 40 66.25 C41.12792969 66.28641602 42.25585938 66.32283203 43.41796875 66.36035156 C50.49697111 66.43773135 56.24200904 65.58283548 61.51904297 60.55175781 C66.27020277 55.11452848 67.5321309 50.92489255 67.37109375 43.8203125 C66.6620083 38.43126307 64.25152632 34.78784565 60.02734375 31.43359375 C55.02905275 28.15434115 51.01145999 26.86578378 45.015625 26.90234375 C44.17290039 26.90484131 43.33017578 26.90733887 42.46191406 26.90991211 C41.40198242 26.91901611 40.34205078 26.92812012 39.25 26.9375 C34.17625 26.9684375 34.17625 26.9684375 29 27 Z " fill="#E0230A" transform="translate(550,140)"/>
<path d="M0 0 C9.9 0 19.8 0 30 0 C30 52.14 30 104.28 30 158 C21.42 158 12.84 158 4 158 C3.505 154.535 3.505 154.535 3 151 C2.45472656 151.39832031 1.90945313 151.79664063 1.34765625 152.20703125 C-9.57352032 159.87985786 -20.95211287 162.34382785 -34.18359375 160.57421875 C-47.91654143 157.88697929 -59.02900223 150.61313519 -67.00390625 139.109375 C-75.80035296 124.78530729 -77.89843807 109.97494482 -74.08984375 93.6875 C-70.04212744 79.9920011 -62.38282568 68.76237274 -49.69140625 61.85351562 C-37.0089752 55.45775201 -24.40498129 54.06756014 -10.6328125 57.953125 C-7.26438546 59.29249955 -4.14733347 61.20152373 -1 63 C-0.67 42.21 -0.34 21.42 0 0 Z M-41.2734375 90.02734375 C-46.64258481 96.16177676 -48.36569195 103.0917119 -48.28125 111.08203125 C-47.59964691 118.15366327 -44.02661678 124.08508581 -39 129 C-32.40881758 133.35868515 -26.98698993 135.532466 -19 135 C-11.5148902 133.22997404 -5.36749557 128.99052072 -0.625 123 C3.23815597 115.86801975 4.52740077 108.47607891 2.3125 100.53515625 C-0.87849544 92.75710486 -5.4080335 87.26536606 -13.0703125 83.7265625 C-23.56082234 79.77669442 -33.29084471 82.53769992 -41.2734375 90.02734375 Z " fill="#DF230A" transform="translate(853,130)"/>
<path d="M0 0 C0.96679688 0.89332031 0.96679688 0.89332031 1.953125 1.8046875 C2.57703125 2.33835938 3.2009375 2.87203125 3.84375 3.421875 C11.86309828 10.70902192 14.88414535 19.57475532 17.953125 29.8046875 C17.953125 36.7346875 17.953125 43.6646875 17.953125 50.8046875 C-6.466875 50.8046875 -30.886875 50.8046875 -56.046875 50.8046875 C-51.13484275 60.62875201 -48.13885285 65.2843434 -38.171875 68.6796875 C-28.25543039 71.20030584 -19.42775989 69.856855 -10.046875 65.8046875 C-7.46875955 64.11060303 -5.16421323 62.33071949 -2.8515625 60.29296875 C-1.046875 58.8046875 -1.046875 58.8046875 1.953125 57.8046875 C2.96114176 61.5525796 3.95813789 65.30331717 4.953125 69.0546875 C5.23929688 70.11816406 5.52546875 71.18164062 5.8203125 72.27734375 C6.22636719 73.81455078 6.22636719 73.81455078 6.640625 75.3828125 C6.89199219 76.32543945 7.14335938 77.26806641 7.40234375 78.23925781 C7.953125 80.8046875 7.953125 80.8046875 7.953125 84.8046875 C5.48013109 86.10945729 3.00072711 87.39834136 0.515625 88.6796875 C-0.51594727 89.22689453 -0.51594727 89.22689453 -1.56835938 89.78515625 C-10.3469127 94.27650911 -18.57831444 95.17380958 -28.359375 95.1171875 C-29.37612305 95.11154785 -30.39287109 95.1059082 -31.44042969 95.10009766 C-47.21261845 94.84489242 -59.28731874 90.07541664 -70.82421875 79.16015625 C-81.95906372 67.35996026 -85.55293929 53.44277152 -85.296875 37.55078125 C-84.25632322 21.95876313 -77.43747034 10.45690942 -66.109375 0.01953125 C-47.86309476 -14.84358453 -17.98293884 -15.51861019 0 0 Z M-53.046875 21.8046875 C-56.02631582 25.94250873 -56.02631582 25.94250873 -57.046875 30.8046875 C-41.206875 30.8046875 -25.366875 30.8046875 -9.046875 30.8046875 C-12.70591853 22.26691927 -15.88285887 17.81247724 -24.046875 13.8046875 C-34.98611473 10.44048139 -45.41848469 13.46173911 -53.046875 21.8046875 Z " fill="#E0230A" transform="translate(749.046875,196.1953125)"/>
<path d="M0 0 C6.27 0 12.54 0 19 0 C20 1 20 1 20.12025452 2.94252014 C20.1169236 4.21826149 20.1169236 4.21826149 20.11352539 5.51977539 C20.11340454 6.49418579 20.11328369 7.46859619 20.11315918 8.47253418 C20.10548523 10.0194696 20.10548523 10.0194696 20.09765625 11.59765625 C20.09664917 12.54024292 20.09564209 13.48282959 20.09460449 14.45397949 C20.08935477 17.99016529 20.07539364 21.52633381 20.0625 25.0625 C20.041875 32.961875 20.02125 40.86125 20 49 C36.83 49 53.66 49 71 49 C71 32.83 71 16.66 71 0 C77.27 0 83.54 0 90 0 C91 1 91 1 91.12304783 3.43441868 C91.12212604 4.52489978 91.12120424 5.61538088 91.12025452 6.73890686 C91.12231651 8.60891106 91.12231651 8.60891106 91.12442017 10.51669312 C91.12088056 11.91094994 91.11724574 13.30520653 91.11352539 14.69946289 C91.11324353 16.15771991 91.11340124 17.61597707 91.1139679 19.07423401 C91.1142559 23.04513485 91.10835877 27.01600575 91.10139394 30.98689961 C91.09516081 35.13225101 91.09455663 39.27760302 91.09336853 43.42295837 C91.09025509 51.27819327 91.08204154 59.13341432 91.07201904 66.98864311 C91.06085829 75.92924399 91.05534755 84.86984552 91.05032361 93.81045163 C91.03985893 112.20697583 91.02205883 130.6034863 91 149 C84.4 149 77.8 149 71 149 C71 121.61 71 94.22 71 66 C54.17 66 37.34 66 20 66 C20 93.39 20 120.78 20 149 C13.4 149 6.8 149 0 149 C0 99.83 0 50.66 0 0 Z " fill="#E0240A" transform="translate(1434,139)"/>
<path d="M0 0 C2.57977851 2.1002043 5.09335353 4.23487283 7.546875 6.48046875 C6.92947516 9.54455135 6.30160709 12.60639893 5.671875 15.66796875 C5.49785156 16.53228516 5.32382813 17.39660156 5.14453125 18.28710938 C4.26603231 22.53318759 3.36872546 26.51671303 1.546875 30.48046875 C-0.73979033 28.2630963 -2.95717864 26.09621514 -4.95703125 23.61328125 C-13.93669137 12.49148535 -27.39951355 6.22371918 -41.453125 4.48046875 C-55.75257386 3.24738466 -70.34105328 6.91324646 -81.62109375 15.9296875 C-93.65933177 26.13230766 -101.63859574 39.68734368 -103.453125 55.48046875 C-104.65404303 73.19927692 -100.11104814 88.6039055 -88.57421875 102.234375 C-79.2506575 112.10739106 -66.45955508 119.14766776 -52.75390625 119.81640625 C-34.78809152 120.13968018 -21.07023415 116.16841986 -7.76171875 103.7734375 C-4.78416043 100.81603186 -2.09105561 97.74317239 0.546875 94.48046875 C1.206875 94.81046875 1.866875 95.14046875 2.546875 95.48046875 C3.23291016 97.61352539 3.23291016 97.61352539 3.8359375 100.390625 C4.05507812 101.37998047 4.27421875 102.36933594 4.5 103.38867188 C4.72171875 104.42958984 4.9434375 105.47050781 5.171875 106.54296875 C5.40132812 107.58775391 5.63078125 108.63253906 5.8671875 109.70898438 C6.43462836 112.29793331 6.99414975 114.88834523 7.546875 117.48046875 C-8.39791829 132.99984819 -27.36844842 139.77682708 -49.47705078 139.79516602 C-70.80120815 139.46867729 -88.45120144 130.4650274 -103.94921875 116.1796875 C-120.03667206 99.59037256 -125.0332415 78.79753183 -124.72265625 56.32421875 C-124.15515872 38.90232421 -116.10728433 22.25476201 -104.453125 9.48046875 C-103.93621094 8.87203125 -103.41929687 8.26359375 -102.88671875 7.63671875 C-77.33426998 -20.54142025 -29.5825953 -22.42745538 0 0 Z " fill="#E0230A" transform="translate(1027.453125,151.51953125)"/>
<path d="M0 0 C10.16200053 7.60456373 18.28809141 17.99340068 20.34375 30.75390625 C20.47459927 33.87022834 20.45024315 36.97931678 20.4140625 40.09765625 C20.40898682 40.93135742 20.40391113 41.76505859 20.39868164 42.62402344 C20.38550828 44.66735729 20.36533376 46.71064393 20.34375 48.75390625 C10.96390189 48.77713256 1.58406377 48.79487364 -7.79580688 48.80571842 C-12.15180481 48.8109248 -16.50778298 48.81798146 -20.86376953 48.8293457 C-25.07183017 48.84025464 -29.27987186 48.84619999 -33.48794556 48.84878349 C-35.08900246 48.85062336 -36.69005839 48.85421604 -38.29110718 48.85963631 C-40.54305213 48.86695316 -42.79491997 48.86789274 -45.046875 48.86743164 C-46.9654834 48.87076256 -46.9654834 48.87076256 -48.92285156 48.87416077 C-52.90554276 48.74587641 -56.71239196 48.30547198 -60.65625 47.75390625 C-57.2493105 59.07510271 -52.59250235 66.64106253 -42.18359375 72.5625 C-33.38069009 76.71224593 -23.62834056 77.27753755 -14.2265625 74.87890625 C-7.61380333 72.32129965 0.0325377 68.37633086 3.34375 61.75390625 C4.00375 61.75390625 4.66375 61.75390625 5.34375 61.75390625 C5.99552969 63.93964187 6.63989674 66.12758855 7.28125 68.31640625 C7.64089844 69.53457031 8.00054688 70.75273437 8.37109375 72.0078125 C9.31051959 75.62592244 9.89118991 79.05244111 10.34375 82.75390625 C-4.81075848 93.50178461 -19.71729574 96.90001865 -38.13671875 94.25390625 C-52.2768277 91.03442478 -64.24545074 83.42664205 -72.19140625 71.19921875 C-80.19008498 57.84675772 -81.74166653 43.41725377 -79.00390625 28.10546875 C-75.11022595 15.37163017 -67.04244272 4.79644278 -55.62890625 -2.06640625 C-37.81331144 -11.36735991 -17.09209279 -11.07101465 0 0 Z M-48.65625 14.75390625 C-49.5225 15.33140625 -50.38875 15.90890625 -51.28125 16.50390625 C-56.68861387 21.62667202 -59.42947834 26.39327632 -60.65625 33.75390625 C-39.86625 33.75390625 -19.07625 33.75390625 2.34375 33.75390625 C-0.96363654 23.83174663 -5.00376027 17.30599461 -13.96875 11.75390625 C-26.08812277 5.82090321 -37.9381349 6.90198373 -48.65625 14.75390625 Z " fill="#E0230A" transform="translate(1956.65625,195.24609375)"/>
<path d="M0 0 C9.19360491 7.21626638 15.54537997 18.57515827 17.7578125 29.99609375 C19.61987947 45.5133185 17.2355904 58.85874902 8.07421875 71.6328125 C-0.77109123 82.32982232 -12.01711329 89.804443 -25.92578125 91.6328125 C-41.16450507 92.98937545 -55.21867069 90.22389134 -67.48828125 80.62890625 C-79.55253676 70.30606857 -85.56467934 58.12443671 -87.1484375 42.42578125 C-87.71619795 29.12043859 -83.30143177 16.43844421 -74.67578125 6.4453125 C-53.87420089 -15.41862205 -24.4416007 -17.35204918 0 0 Z M-59.80078125 17.4453125 C-66.5753404 25.76971184 -68.88735652 35.0692213 -67.92578125 45.6328125 C-65.44479626 56.52822248 -59.55499377 64.43858572 -50.234375 70.44140625 C-42.09041544 74.6442957 -32.97884848 74.86999634 -24.078125 73.05078125 C-15.25908316 69.98997275 -8.07561867 63.53723432 -3.86328125 55.2578125 C-0.0136511 46.62696911 0.80779263 36.37228703 -2.36328125 27.3203125 C-7.27680725 17.0310124 -15.32680239 10.48827998 -25.92578125 6.6328125 C-38.49925271 3.18491474 -51.11588051 8.18757788 -59.80078125 17.4453125 Z " fill="#E0230A" transform="translate(1639.92578125,198.3671875)"/>
<path d="M0 0 C7.26 0 14.52 0 22 0 C42.61563198 40.85027692 42.61563198 40.85027692 50.15649414 58.12939453 C51.05178727 60.11484632 52.01400662 62.05821046 53 64 C53.36754395 63.05125 53.73508789 62.1025 54.11376953 61.125 C58.85962601 49.12604921 64.48530523 37.63148501 70.29980469 26.11914062 C71.89902817 22.95242035 73.48924692 19.78129686 75.078125 16.609375 C76.09063966 14.59349569 77.10364163 12.57786104 78.1171875 10.5625 C78.83115189 9.14094604 78.83115189 9.14094604 79.55953979 7.69067383 C79.99734772 6.82466553 80.43515564 5.95865723 80.88623047 5.06640625 C81.27148895 4.30271729 81.65674744 3.53902832 82.05368042 2.75219727 C83 1 83 1 84 0 C85.4887186 -0.08669432 86.981445 -0.10703494 88.47265625 -0.09765625 C89.37177734 -0.09443359 90.27089844 -0.09121094 91.19726562 -0.08789062 C92.61555664 -0.07532227 92.61555664 -0.07532227 94.0625 -0.0625 C95.4865918 -0.05573242 95.4865918 -0.05573242 96.93945312 -0.04882812 C99.29303065 -0.0370011 101.64648477 -0.02052025 104 0 C102.67523791 4.24761712 101.05582337 8.13590034 99.0640564 12.11239624 C98.77241533 12.69738722 98.48077426 13.28237821 98.18029559 13.88509619 C97.20910559 15.83075159 96.23225262 17.77350539 95.25537109 19.71630859 C94.55523379 21.11601867 93.85544937 22.51590531 93.1559906 23.91595459 C91.26098728 27.70653409 89.36106752 31.49462996 87.46024656 35.28229475 C85.47279774 39.24467402 83.48989188 43.20932537 81.50650024 47.17373657 C77.75213907 54.67624741 73.99370462 62.17670993 70.23379767 69.67644274 C65.95255741 78.21655402 61.67587031 86.75894245 57.39956164 95.30152392 C48.6047669 112.87021888 39.8041051 130.43596911 31 148 C24.07 148 17.14 148 10 148 C14.75502272 137.81488915 19.60641954 127.71859993 24.76171875 117.73046875 C25.7444099 115.81459122 26.72683041 113.89857485 27.70898438 111.98242188 C29.21141923 109.05219037 30.71978457 106.12576834 32.24584961 103.20776367 C33.74879667 100.32859558 35.22606592 97.43746878 36.69921875 94.54296875 C37.16253098 93.67109421 37.6258432 92.79921967 38.10319519 91.90092468 C38.51475357 91.08179092 38.92631195 90.26265717 39.3503418 89.41870117 C39.71846481 88.70767746 40.08658783 87.99665375 40.46586609 87.26408386 C41.74828372 81.82817911 37.61079935 75.95115662 35.19287109 71.17456055 C34.81218979 70.41451218 34.43150848 69.65446381 34.03929138 68.87138367 C32.78768467 66.37463051 31.53052237 63.88071753 30.2734375 61.38671875 C29.40149905 59.64911484 28.52997378 57.91130353 27.65884399 56.17329407 C25.37054521 51.60997151 23.07779535 47.04890148 20.78375244 42.48846436 C17.10376777 35.17170267 13.4292383 27.85220565 9.75722122 20.53144264 C8.47166214 17.97058246 7.1833985 15.4110959 5.89486694 12.85173035 C5.11260077 11.29402126 4.33042029 9.73626914 3.54833984 8.1784668 C3.18680313 7.46213074 2.82526642 6.74579468 2.45277405 6.00775146 C0 1.11363281 0 1.11363281 0 0 Z " fill="#DF230A" transform="translate(1308,189)"/>
<path d="M0 0 C6.27 0 12.54 0 19 0 C19.01458252 1.73491699 19.02916504 3.46983398 19.04418945 5.25732422 C19.09608407 11.02498223 19.16143377 16.79240594 19.23571491 22.55981255 C19.28021694 26.05254633 19.31951558 29.54516888 19.34643555 33.03808594 C19.37770696 37.06474265 19.43248565 41.09079534 19.48828125 45.1171875 C19.49467117 46.35612762 19.5010611 47.59506775 19.50764465 48.87155151 C19.69045872 59.7740782 21.25570694 68.90029252 29 77 C35.94466034 82.78721695 43.29984967 82.69446876 52 82 C58.84643426 80.04993204 63.63551753 75.47884927 67.25 69.4375 C69.67260832 64.67880509 70.12952291 61.182104 70.20532227 55.85449219 C70.22526749 54.61350769 70.24521271 53.37252319 70.26576233 52.09393311 C70.28274393 50.744915 70.29962283 49.39589559 70.31640625 48.046875 C70.33698876 46.66253049 70.35798557 45.27819208 70.37937927 43.89385986 C70.43446607 40.257456 70.48393414 36.62099667 70.53222656 32.98449707 C70.58253964 29.27086475 70.63817442 25.55731256 70.69335938 21.84375 C70.80077707 14.56256608 70.90176606 7.28131467 71 0 C77.27 0 83.54 0 90 0 C90 32.67 90 65.34 90 99 C84.39 99 78.78 99 73 99 C72.67 94.71 72.34 90.42 72 86 C71.195625 87.051875 70.39125 88.10375 69.5625 89.1875 C65.94862346 93.38672274 61.99939509 95.71384445 57 98 C56.32324219 98.32097656 55.64648438 98.64195312 54.94921875 98.97265625 C46.28168579 102.48210933 35.91962758 102.3271292 27.125 99.375 C16.12791854 94.66661994 8.81030575 88.10515906 3.6484375 77.125 C-0.20400596 67.14744858 -0.13985495 57.44666017 -0.09765625 46.875 C-0.0957878 45.51879936 -0.09436592 44.16259804 -0.09336853 42.80639648 C-0.08957696 39.26204517 -0.07977595 35.71773579 -0.06866455 32.17340088 C-0.05837762 28.54659594 -0.05385541 24.91978412 -0.04882812 21.29296875 C-0.03815018 14.19529386 -0.02058117 7.0976541 0 0 Z " fill="#DF230A" transform="translate(1054,189)"/>
<path d="M0 0 C5.94 0 11.88 0 18 0 C18.01981934 1.67956787 18.03963867 3.35913574 18.06005859 5.08959961 C18.12812158 10.66962745 18.20491736 16.24949055 18.28752708 21.82932186 C18.33724725 25.20884622 18.38357695 28.58834295 18.421875 31.96801758 C18.46775701 35.86297047 18.52571394 39.75758937 18.5859375 43.65234375 C18.59748871 44.8526976 18.60903992 46.05305145 18.62094116 47.28977966 C18.81088983 58.19266959 20.21444384 67.14322624 27 76 C33.25255917 81.90144354 39.3140707 82.42899472 47.60546875 82.3359375 C53.75470427 81.72738255 58.56576193 79.51014986 62.87890625 75.0625 C70.52137246 65.33907311 70.14862521 54.851631 70.31640625 42.96875 C70.3475779 41.1212616 70.3475779 41.1212616 70.37937927 39.2364502 C70.44446188 35.32435374 70.50356693 31.41219344 70.5625 27.5 C70.60523899 24.83852655 70.64934002 22.17707783 70.69335938 19.515625 C70.80010072 13.01048113 70.90148325 6.50527341 71 0 C76.94 0 82.88 0 89 0 C89 32.67 89 65.34 89 99 C83.39 99 77.78 99 72 99 C71.67 95.04 71.34 91.08 71 87 C70.05125 88.051875 69.1025 89.10375 68.125 90.1875 C60.54054998 97.77195002 50.36644104 101.26205914 39.75 101.375 C28.01642113 101.189672 19.37754702 97.29913455 11.09375 89.1171875 C0.74033229 77.93023192 -0.30392307 66.24917396 -0.1953125 51.5625 C-0.19157647 50.07177928 -0.18873229 48.58105609 -0.18673706 47.09033203 C-0.17914703 43.19082712 -0.15953904 39.29147419 -0.1373291 35.39202881 C-0.11677022 31.40330053 -0.10771399 27.41454739 -0.09765625 23.42578125 C-0.07628815 15.61711061 -0.04114452 7.80859607 0 0 Z " fill="#DF230A" transform="translate(1680,189)"/>
<path d="M0 0 C2.13426533 1.6389296 4.17654273 3.39652654 6.1953125 5.17578125 C4.5453125 12.10578125 2.8953125 19.03578125 1.1953125 26.17578125 C-0.4546875 24.52578125 -2.1046875 22.87578125 -3.8046875 21.17578125 C-9.89550669 15.32381771 -15.15821067 11.12517019 -23.9296875 10.80078125 C-29.10843212 10.97366802 -31.84220974 12.34864678 -35.6171875 15.86328125 C-37.33166121 19.2019932 -37.82195872 22.5818691 -36.8046875 26.17578125 C-32.6090592 31.89792355 -26.43618882 33.64859676 -19.9921875 36.11328125 C-9.53244145 40.11954929 -0.22484774 44.60889773 6.1953125 54.17578125 C9.56448482 62.13927946 9.17471245 71.18771287 6.1015625 79.18359375 C2.87953779 86.2664929 -2.30038381 91.78863733 -9.4296875 94.98828125 C-21.368604 99.18901113 -34.28921959 98.13488632 -45.8046875 93.17578125 C-54.81690518 88.36755099 -54.81690518 88.36755099 -56.8046875 83.17578125 C-56.57275391 80.97753906 -56.57275391 80.97753906 -55.90625 78.62890625 C-55.67421875 77.78457031 -55.4421875 76.94023437 -55.203125 76.0703125 C-54.94789062 75.19761719 -54.69265625 74.32492187 -54.4296875 73.42578125 C-54.1821875 72.53761719 -53.9346875 71.64945312 -53.6796875 70.734375 C-53.06739187 68.54424064 -52.44206575 66.35872249 -51.8046875 64.17578125 C-51.05574219 64.92730469 -50.30679687 65.67882812 -49.53515625 66.453125 C-41.85605814 74.11025144 -34.91086359 80.20404968 -23.5546875 80.61328125 C-19.34181625 80.41487287 -16.31096287 79.65582968 -12.8046875 77.17578125 C-9.82756665 73.70247359 -9.24271655 70.54517473 -9.4765625 66.09375 C-10.0589969 62.68928228 -11.17964415 61.43453948 -13.8046875 59.17578125 C-17.36258601 57.24508859 -21.06746994 55.7238702 -24.8046875 54.17578125 C-26.87259861 53.29989398 -28.93712631 52.41681153 -30.99902344 51.52685547 C-32.37832211 50.9319574 -33.7603789 50.34340099 -35.14550781 49.76220703 C-40.79482711 47.3400649 -46.00275029 44.54288359 -50.0546875 39.80078125 C-50.77398438 38.98480469 -50.77398438 38.98480469 -51.5078125 38.15234375 C-55.85627921 31.52486135 -55.48097432 23.7861481 -54.8046875 16.17578125 C-52.97536762 8.80373165 -48.10477083 1.95676972 -41.71484375 -2.17578125 C-29.22152204 -8.6434599 -11.76892463 -7.65471839 0 0 Z " fill="#E0230A" transform="translate(1850.8046875,192.82421875)"/>
<path d="M0 0 C1.5675 0.020625 3.135 0.04125 4.75 0.0625 C6.07 6.0025 7.39 11.9425 8.75 18.0625 C5.78 18.0625 2.81 18.0625 -0.25 18.0625 C-8.08256779 18.80792904 -15.58584453 21.08633129 -21.0390625 27.00390625 C-27.84451668 36.37397741 -28.69901636 46.9198319 -28.76171875 58.16796875 C-28.77966995 59.3731868 -28.79762115 60.57840485 -28.81611633 61.82014465 C-28.86984552 65.63006195 -28.90399523 69.43985668 -28.9375 73.25 C-28.97070602 75.84962629 -29.00519867 78.44923649 -29.04101562 81.04882812 C-29.1255506 87.38662977 -29.19253962 93.72439742 -29.25 100.0625 C-35.52 100.0625 -41.79 100.0625 -48.25 100.0625 C-48.25 67.3925 -48.25 34.7225 -48.25 1.0625 C-42.31 1.0625 -36.37 1.0625 -30.25 1.0625 C-29.755 7.9925 -29.755 7.9925 -29.25 15.0625 C-27.991875 13.680625 -26.73375 12.29875 -25.4375 10.875 C-18.49210254 3.89663388 -9.88160633 -0.13002114 0 0 Z " fill="#E1220A" transform="translate(1222.25,187.9375)"/>
<path d="M0 0 C1.32 5.94 2.64 11.88 4 18 C1.03 18 -1.94 18 -5 18 C-13.75011234 18.66777173 -20.31460695 21.31460695 -26.5625 27.5625 C-33.30026651 35.90449663 -33.45581904 47.1050552 -33.51171875 57.32421875 C-33.52966995 58.55163284 -33.54762115 59.77904694 -33.56611633 61.0436554 C-33.61985866 64.92490304 -33.65399958 68.80603027 -33.6875 72.6875 C-33.72070485 75.33530308 -33.75519739 77.98309035 -33.79101562 80.63085938 C-33.87556456 87.08715219 -33.94254744 93.54341152 -34 100 C-40.27 100 -46.54 100 -53 100 C-53 67.33 -53 34.66 -53 1 C-47.06 1 -41.12 1 -35 1 C-34.505 7.93 -34.505 7.93 -34 15 C-33.360625 14.13375 -32.72125 13.2675 -32.0625 12.375 C-23.67877327 2.41343706 -12.55756022 -0.53818115 0 0 Z " fill="#DF230A" transform="translate(1301,188)"/>
<path d="M0 0 C5.54999022 2.98845627 5.54999022 2.98845627 6.8984375 6.01953125 C8.34137152 8.61374241 9.61972895 8.9443209 12.375 9.9375 C16.45407892 11.64532692 18.91315515 12.91704269 21 17 C22.14156515 23.48889666 20.62622206 26.61560967 17 32 C16.5946039 34.55647745 16.43648468 37.07820197 16.26953125 39.66015625 C15.91739658 42.71709346 14.9310221 44.62335742 13 47 C7.53636001 50.64242666 1.2216505 49.06223301 -5 48 C-5.99 48.495 -5.99 48.495 -7 49 C-11.63213493 49.55512815 -14.98172127 49.6364242 -19 47.125 C-21.87999654 44.06500368 -22.09592187 42.33404474 -22.3125 38.25 C-22.73287447 33.44670477 -24.19449605 30.94523993 -27 27 C-28.14903499 22.32178613 -28.40424513 19.23605094 -26 15 C-23.68548723 12.08542836 -22.05755657 11.02302263 -18.5625 9.625 C-15.27891384 8.12722385 -14.3908609 7.58676868 -12.3125 4.9375 C-8.68546562 0.33018605 -5.855425 -0.702651 0 0 Z " fill="#E0230A" transform="translate(231,52)"/>
<path d="M0 0 C0.71003174 0.00829834 1.42006348 0.01659668 2.15161133 0.02514648 C8.67699698 0.23690689 12.06592563 1.24784739 16.578125 6.05078125 C20.01346769 10.30720859 20.0625 11.4000704 20.0625 17.4375 C6.8625 17.4375 -6.3375 17.4375 -19.9375 17.4375 C-18.76399842 8.04948738 -18.76399842 8.04948738 -13.9375 3.4375 C-9.31360755 0.60654544 -5.33297749 -0.07967158 0 0 Z " fill="#E0230B" transform="translate(327.9375,252.5625)"/>
<path d="M0 0 C10.89 0 21.78 0 33 0 C33 5.61 33 11.22 33 17 C22.11 17 11.22 17 0 17 C0 11.39 0 5.78 0 0 Z " fill="#E0230A" transform="translate(284,325)"/>
<path d="M0 0 C5.61 0 11.22 0 17 0 C17 10.89 17 21.78 17 33 C11.39 33 5.78 33 0 33 C0 22.11 0 11.22 0 0 Z " fill="#DF230B" transform="translate(348,180)"/>
<path d="M0 0 C11.17545376 3.72515125 11.17545376 3.72515125 15 10 C17.87651296 17.322033 17.56983605 23.64796002 14.91015625 30.921875 C12.55495793 36.29940935 9.40425503 38.86081572 4 41 C2.68 41 1.36 41 0 41 C0 27.47 0 13.94 0 0 Z " fill="#E0230A" transform="translate(300,116)"/>
</svg>
